<?xml version="1.0" encoding="UTF-8" standalone="no"?><svg xmlns="http://www.w3.org/2000/svg" xmlns:xlink="http://www.w3.org/1999/xlink" contentScriptType="application/ecmascript" contentStyleType="text/css" height="1467px" preserveAspectRatio="none" style="width:807px;height:1467px;" version="1.1" viewBox="0 0 807 1467" width="807px" zoomAndPan="magnify"><defs><filter height="300%" id="fypyb8xewtpfq" width="300%" x="-1" y="-1"><feGaussianBlur result="blurOut" stdDeviation="2.0"/><feColorMatrix in="blurOut" result="blurOut2" type="matrix" values="0 0 0 0 0 0 0 0 0 0 0 0 0 0 0 0 0 0 .4 0"/><feOffset dx="4.0" dy="4.0" in="blurOut2" result="blurOut3"/><feBlend in="SourceGraphic" in2="blurOut3" mode="normal"/></filter></defs><g><ellipse cx="359.3319" cy="18" fill="#000000" filter="url(#fypyb8xewtpfq)" rx="10" ry="10" style="stroke: none; stroke-width: 1.0;"/><rect fill="#FEFECE" filter="url(#fypyb8xewtpfq)" height="34.1328" rx="12.5" ry="12.5" style="stroke: #A80036; stroke-width: 1.5;" width="136" x="291.3319" y="82"/><text fill="#000000" font-family="sans-serif" font-size="12" lengthAdjust="spacingAndGlyphs" textLength="116" x="301.3319" y="103.6016">null,null,null,null,null</text><rect fill="#FEFECE" filter="url(#fypyb8xewtpfq)" height="34.1328" rx="12.5" ry="12.5" style="stroke: #A80036; stroke-width: 1.5;" width="131" x="293.8319" y="170"/><text fill="#000000" font-family="sans-serif" font-size="12" lengthAdjust="spacingAndGlyphs" textLength="111" x="303.8319" y="191.6016">~E,null,null,null,null</text><rect fill="#FEFECE" filter="url(#fypyb8xewtpfq)" height="34.1328" rx="12.5" ry="12.5" style="stroke: #A80036; stroke-width: 1.5;" width="126" x="296.3319" y="258"/><text fill="#000000" font-family="sans-serif" font-size="12" lengthAdjust="spacingAndGlyphs" textLength="106" x="306.3319" y="279.6016">~E,~E,null,null,null</text><rect fill="#FEFECE" filter="url(#fypyb8xewtpfq)" height="34.1328" rx="12.5" ry="12.5" style="stroke: #A80036; stroke-width: 1.5;" width="121" x="298.8319" y="346"/><text fill="#000000" font-family="sans-serif" font-size="12" lengthAdjust="spacingAndGlyphs" textLength="101" x="308.8319" y="367.6016">~E,~E,~E,null,null</text><rect fill="#FEFECE" filter="url(#fypyb8xewtpfq)" height="34.1328" rx="12.5" ry="12.5" style="stroke: #A80036; stroke-width: 1.5;" width="116" x="301.3319" y="434"/><text fill="#000000" font-family="sans-serif" font-size="12" lengthAdjust="spacingAndGlyphs" textLength="96" x="311.3319" y="455.6016">~E,~E,~E,~E,null</text><rect fill="#FF0000" filter="url(#fypyb8xewtpfq)" height="34.1328" rx="12.5" ry="12.5" style="stroke: #A80036; stroke-width: 1.5;" width="111" x="303.8319" y="522"/><text fill="#000000" font-family="sans-serif" font-size="12" lengthAdjust="spacingAndGlyphs" textLength="91" x="313.8319" y="543.6016">~E,~E,~E,~E,~E</text><rect fill="#FEFECE" filter="url(#fypyb8xewtpfq)" height="34.1328" rx="12.5" ry="12.5" style="stroke: #A80036; stroke-width: 1.5;" width="103" x="573.8319" y="610"/><text fill="#000000" font-family="sans-serif" font-size="12" lengthAdjust="spacingAndGlyphs" textLength="83" x="583.8319" y="631.6016">~E,~E,~E,~E,E</text><rect fill="#FEFECE" filter="url(#fypyb8xewtpfq)" height="34.1328" rx="12.5" ry="12.5" style="stroke: #A80036; stroke-width: 1.5;" width="103" x="245.8319" y="1334"/><text fill="#000000" font-family="sans-serif" font-size="12" lengthAdjust="spacingAndGlyphs" textLength="83" x="255.8319" y="1355.6016">~E,~E,E,~E,~E</text><rect fill="#FEFECE" filter="url(#fypyb8xewtpfq)" height="34.1328" rx="12.5" ry="12.5" style="stroke: #A80036; stroke-width: 1.5;" width="103" x="404.8319" y="962"/><text fill="#000000" font-family="sans-serif" font-size="12" lengthAdjust="spacingAndGlyphs" textLength="83" x="414.8319" y="983.6016">E,~E,~E,~E,~E</text><rect fill="#FEFECE" filter="url(#fypyb8xewtpfq)" height="34.1328" rx="12.5" ry="12.5" style="stroke: #A80036; stroke-width: 1.5;" width="95" x="328.8319" y="1050"/><text fill="#000000" font-family="sans-serif" font-size="12" lengthAdjust="spacingAndGlyphs" textLength="75" x="338.8319" y="1071.6016">E,E,~E,~E,~E</text><rect fill="#FEFECE" filter="url(#fypyb8xewtpfq)" height="34.1328" rx="12.5" ry="12.5" style="stroke: #A80036; stroke-width: 1.5;" width="103" x="245.8319" y="1158"/><text fill="#000000" font-family="sans-serif" font-size="12" lengthAdjust="spacingAndGlyphs" textLength="83" x="255.8319" y="1179.6016">~E,E,~E,~E,~E</text><rect fill="#FEFECE" filter="url(#fypyb8xewtpfq)" height="34.1328" rx="12.5" ry="12.5" style="stroke: #A80036; stroke-width: 1.5;" width="103" x="237.8319" y="786"/><text fill="#000000" font-family="sans-serif" font-size="12" lengthAdjust="spacingAndGlyphs" textLength="83" x="247.8319" y="807.6016">~E,~E,~E,E,~E</text><rect fill="#FEFECE" filter="url(#fypyb8xewtpfq)" height="34.1328" rx="12.5" ry="12.5" style="stroke: #A80036; stroke-width: 1.5;" width="95" x="319.8319" y="1422"/><text fill="#000000" font-family="sans-serif" font-size="12" lengthAdjust="spacingAndGlyphs" textLength="75" x="329.8319" y="1443.6016">~E,~E,E,~E,E</text><rect fill="#FEFECE" filter="url(#fypyb8xewtpfq)" height="34.1328" rx="12.5" ry="12.5" style="stroke: #A80036; stroke-width: 1.5;" width="95" x="205.8319" y="874"/><text fill="#000000" font-family="sans-serif" font-size="12" lengthAdjust="spacingAndGlyphs" textLength="75" x="215.8319" y="895.6016">~E,E,~E,E,~E</text><rect fill="#FEFECE" filter="url(#fypyb8xewtpfq)" height="34.1328" rx="12.5" ry="12.5" style="stroke: #A80036; stroke-width: 1.5;" width="95" x="172.8319" y="1422"/><text fill="#000000" font-family="sans-serif" font-size="12" lengthAdjust="spacingAndGlyphs" textLength="75" x="182.8319" y="1443.6016">~E,~E,E,E,~E</text><rect fill="#FEFECE" filter="url(#fypyb8xewtpfq)" height="34.1328" rx="12.5" ry="12.5" style="stroke: #A80036; stroke-width: 1.5;" width="95" x="320.8319" y="874"/><text fill="#000000" font-family="sans-serif" font-size="12" lengthAdjust="spacingAndGlyphs" textLength="75" x="330.8319" y="895.6016">E,~E,~E,E,~E</text><rect fill="#FEFECE" filter="url(#fypyb8xewtpfq)" height="34.1328" rx="12.5" ry="12.5" style="stroke: #A80036; stroke-width: 1.5;" width="95" x="587.8319" y="1246"/><text fill="#000000" font-family="sans-serif" font-size="12" lengthAdjust="spacingAndGlyphs" textLength="75" x="597.8319" y="1267.6016">~E,E,~E,~E,E</text><rect fill="#FEFECE" filter="url(#fypyb8xewtpfq)" height="34.1328" rx="12.5" ry="12.5" style="stroke: #A80036; stroke-width: 1.5;" width="95" x="532.8319" y="1050"/><text fill="#000000" font-family="sans-serif" font-size="12" lengthAdjust="spacingAndGlyphs" textLength="75" x="542.8319" y="1071.6016">E,~E,~E,~E,E</text><rect fill="#FEFECE" filter="url(#fypyb8xewtpfq)" height="34.1328" rx="12.5" ry="12.5" style="stroke: #A80036; stroke-width: 1.5;" width="95" x="320.8319" y="698"/><text fill="#000000" font-family="sans-serif" font-size="12" lengthAdjust="spacingAndGlyphs" textLength="75" x="330.8319" y="719.6016">~E,~E,~E,E,E</text><rect fill="#FEFECE" filter="url(#fypyb8xewtpfq)" height="34.1328" rx="12.5" ry="12.5" style="stroke: #A80036; stroke-width: 1.5;" width="95" x="249.8319" y="1246"/><text fill="#000000" font-family="sans-serif" font-size="12" lengthAdjust="spacingAndGlyphs" textLength="75" x="259.8319" y="1267.6016">~E,E,E,~E,~E</text><rect fill="#FEFECE" filter="url(#fypyb8xewtpfq)" height="34.1328" rx="12.5" ry="12.5" style="stroke: #A80036; stroke-width: 1.5;" width="95" x="409.8319" y="1104"/><text fill="#000000" font-family="sans-serif" font-size="12" lengthAdjust="spacingAndGlyphs" textLength="75" x="419.8319" y="1125.6016">E,~E,E,~E,~E</text><!--link start to null,null,null,null,null--><path d="M359.3319,28.2587 C359.3319,40.3447 359.3319,60.7784 359.3319,76.586 " fill="none" id="start-null,null,null,null,null" style="stroke: #A80036; stroke-width: 1.0;"/><polygon fill="#A80036" points="359.3319,81.7507,363.3319,72.7507,359.3319,76.7507,355.3319,72.7507,359.3319,81.7507" style="stroke: #A80036; stroke-width: 1.0;"/><text fill="#000000" font-family="sans-serif" font-size="11" lengthAdjust="spacingAndGlyphs" textLength="7" x="360.3319" y="59.6348">1</text><!--link null,null,null,null,null to ~E,null,null,null,null--><path d="M359.3319,116.386 C359.3319,130.2154 359.3319,149.6635 359.3319,164.6491 " fill="none" id="null,null,null,null,null-~E,null,null,null,null" style="stroke: #A80036; stroke-width: 1.0;"/><polygon fill="#A80036" points="359.3319,169.9496,363.3319,160.9496,359.3319,164.9496,355.3319,160.9496,359.3319,169.9496" style="stroke: #A80036; stroke-width: 1.0;"/><text fill="#000000" font-family="sans-serif" font-size="11" lengthAdjust="spacingAndGlyphs" textLength="7" x="360.3319" y="147.6348">1</text><!--link ~E,null,null,null,null to ~E,~E,null,null,null--><path d="M359.3319,204.386 C359.3319,218.2154 359.3319,237.6635 359.3319,252.6491 " fill="none" id="~E,null,null,null,null-~E,~E,null,null,null" style="stroke: #A80036; stroke-width: 1.0;"/><polygon fill="#A80036" points="359.3319,257.9496,363.3319,248.9496,359.3319,252.9496,355.3319,248.9496,359.3319,257.9496" style="stroke: #A80036; stroke-width: 1.0;"/><text fill="#000000" font-family="sans-serif" font-size="11" lengthAdjust="spacingAndGlyphs" textLength="7" x="360.3319" y="235.6348">1</text><!--link ~E,~E,null,null,null to ~E,~E,~E,null,null--><path d="M359.3319,292.386 C359.3319,306.2154 359.3319,325.6635 359.3319,340.6491 " fill="none" id="~E,~E,null,null,null-~E,~E,~E,null,null" style="stroke: #A80036; stroke-width: 1.0;"/><polygon fill="#A80036" points="359.3319,345.9496,363.3319,336.9496,359.3319,340.9496,355.3319,336.9496,359.3319,345.9496" style="stroke: #A80036; stroke-width: 1.0;"/><text fill="#000000" font-family="sans-serif" font-size="11" lengthAdjust="spacingAndGlyphs" textLength="7" x="360.3319" y="323.6348">1</text><!--link ~E,~E,~E,null,null to ~E,~E,~E,~E,null--><path d="M359.3319,380.386 C359.3319,394.2154 359.3319,413.6635 359.3319,428.6491 " fill="none" id="~E,~E,~E,null,null-~E,~E,~E,~E,null" style="stroke: #A80036; stroke-width: 1.0;"/><polygon fill="#A80036" points="359.3319,433.9496,363.3319,424.9496,359.3319,428.9496,355.3319,424.9496,359.3319,433.9496" style="stroke: #A80036; stroke-width: 1.0;"/><text fill="#000000" font-family="sans-serif" font-size="11" lengthAdjust="spacingAndGlyphs" textLength="7" x="360.3319" y="411.6348">1</text><!--link ~E,~E,~E,~E,null to ~E,~E,~E,~E,~E--><path d="M359.3319,468.386 C359.3319,482.2154 359.3319,501.6635 359.3319,516.6491 " fill="none" id="~E,~E,~E,~E,null-~E,~E,~E,~E,~E" style="stroke: #A80036; stroke-width: 1.0;"/><polygon fill="#A80036" points="359.3319,521.9496,363.3319,512.9496,359.3319,516.9496,355.3319,512.9496,359.3319,521.9496" style="stroke: #A80036; stroke-width: 1.0;"/><text fill="#000000" font-family="sans-serif" font-size="11" lengthAdjust="spacingAndGlyphs" textLength="7" x="360.3319" y="499.6348">1</text><!--link ~E,~E,~E,~E,~E to ~E,~E,~E,~E,~E--><path d="M414.973,531.04 C426.5249,531.8779 434.8319,534.5312 434.8319,539 C434.8319,542.7705 428.918,545.2486 420.131,546.4342 " fill="none" id="~E,~E,~E,~E,~E-~E,~E,~E,~E,~E" style="stroke: #A80036; stroke-width: 1.0;"/><polygon fill="#A80036" points="414.973,546.96,424.3323,550.0265,419.9472,546.4529,423.5209,542.0678,414.973,546.96" style="stroke: #A80036; stroke-width: 1.0;"/><text fill="#000000" font-family="sans-serif" font-size="11" lengthAdjust="spacingAndGlyphs" textLength="21" x="440.8319" y="543.6348">231</text><!--link ~E,~E,~E,~E,~E to ~E,~E,~E,~E,E--><path d="M415.1099,542.5898 C455.9238,546.82 511.8719,556.0186 557.3319,576 C574.203,583.4155 590.7959,595.7326 603.3673,606.4045 " fill="none" id="~E,~E,~E,~E,~E-~E,~E,~E,~E,E" style="stroke: #A80036; stroke-width: 1.0;"/><polygon fill="#A80036" points="607.471,609.9511,603.2772,601.0398,603.688,606.6817,598.0461,607.0925,607.471,609.9511" style="stroke: #A80036; stroke-width: 1.0;"/><text fill="#000000" font-family="sans-serif" font-size="11" lengthAdjust="spacingAndGlyphs" textLength="14" x="583.3319" y="587.6348">38</text><!--link ~E,~E,~E,~E,E to ~E,~E,~E,~E,~E--><path d="M620.9356,609.6051 C617.1321,598.2295 610.445,584.0374 599.3319,576 C571.4629,555.8442 481.6254,546.351 420.1324,542.1164 " fill="none" id="~E,~E,~E,~E,E-~E,~E,~E,~E,~E" style="stroke: #A80036; stroke-width: 1.0;"/><polygon fill="#A80036" points="415.0155,541.7716,423.7261,546.3679,420.0042,542.1079,424.2641,538.386,415.0155,541.7716" style="stroke: #A80036; stroke-width: 1.0;"/><text fill="#000000" font-family="sans-serif" font-size="11" lengthAdjust="spacingAndGlyphs" textLength="14" x="613.3319" y="587.6348">42</text><!--link ~E,~E,~E,~E,~E to ~E,~E,E,~E,~E--><path d="M303.5468,542.4391 C216.0207,548.2607 54.1093,560.9085 32.3319,576 C11.4201,590.4916 6.3319,601.5577 6.3319,627 C6.3319,627 6.3319,627 6.3319,935 C6.3319,1068.2333 1.0218,1117.4908 78.3319,1226 C117.8293,1281.4369 190.1346,1315.6443 240.8253,1333.9602 " fill="none" id="~E,~E,~E,~E,~E-~E,~E,E,~E,~E" style="stroke: #A80036; stroke-width: 1.0;"/><polygon fill="#A80036" points="245.6616,1335.6832,238.5262,1328.8946,240.9516,1334.0051,235.8411,1336.4305,245.6616,1335.6832" style="stroke: #A80036; stroke-width: 1.0;"/><text fill="#000000" font-family="sans-serif" font-size="11" lengthAdjust="spacingAndGlyphs" textLength="14" x="7.3319" y="939.6348">39</text><!--link ~E,~E,E,~E,~E to ~E,~E,~E,~E,~E--><path d="M277.3761,1333.7977 C218.2893,1280.8355 48.3319,1113.0223 48.3319,935 C48.3319,627 48.3319,627 48.3319,627 C48.3319,575.5079 208.1757,552.6176 298.6745,543.7842 " fill="none" id="~E,~E,E,~E,~E-~E,~E,~E,~E,~E" style="stroke: #A80036; stroke-width: 1.0;"/><polygon fill="#A80036" points="303.7313,543.2982,294.3898,540.1777,298.7542,543.7766,295.1553,548.141,303.7313,543.2982" style="stroke: #A80036; stroke-width: 1.0;"/><text fill="#000000" font-family="sans-serif" font-size="11" lengthAdjust="spacingAndGlyphs" textLength="14" x="49.3319" y="939.6348">44</text><!--link ~E,~E,~E,~E,~E to E,~E,~E,~E,~E--><path d="M414.8882,548.3491 C447.7316,554.9104 485.2088,564.5419 497.3319,576 C557.6376,632.9979 534.3319,676.0209 534.3319,759 C534.3319,759 534.3319,759 534.3319,891 C534.3319,919.7091 510.7955,943.4313 489.5806,958.9825 " fill="none" id="~E,~E,~E,~E,~E-E,~E,~E,~E,~E" style="stroke: #A80036; stroke-width: 1.0;"/><polygon fill="#A80036" points="485.3762,961.9828,495.0256,960.0107,489.4461,959.0783,490.3785,953.4988,485.3762,961.9828" style="stroke: #A80036; stroke-width: 1.0;"/><text fill="#000000" font-family="sans-serif" font-size="11" lengthAdjust="spacingAndGlyphs" textLength="14" x="536.3319" y="763.6348">42</text><!--link E,~E,~E,~E,~E to ~E,~E,~E,~E,~E--><path d="M466.9549,961.846 C476.6019,944.607 489.3319,916.9435 489.3319,891 C489.3319,759 489.3319,759 489.3319,759 C489.3319,676.2748 508.2005,639.6268 455.3319,576 C446.1311,564.9269 433.2075,557.1587 419.8174,551.712 " fill="none" id="E,~E,~E,~E,~E-~E,~E,~E,~E,~E" style="stroke: #A80036; stroke-width: 1.0;"/><polygon fill="#A80036" points="414.8692,549.8085,421.8331,556.773,419.5358,551.6036,424.7053,549.3064,414.8692,549.8085" style="stroke: #A80036; stroke-width: 1.0;"/><text fill="#000000" font-family="sans-serif" font-size="11" lengthAdjust="spacingAndGlyphs" textLength="14" x="491.3319" y="763.6348">37</text><!--link E,~E,~E,~E,~E to E,E,~E,~E,~E--><path d="M405.0543,996.1817 C396.2601,1001.276 388.1093,1007.7711 382.3319,1016 C376.5399,1024.2496 374.6937,1035.1601 374.4376,1044.772 " fill="none" id="E,~E,~E,~E,~E-E,E,~E,~E,~E" style="stroke: #A80036; stroke-width: 1.0;"/><polygon fill="#A80036" points="374.444,1049.9532,378.4329,1040.9483,374.4379,1044.9532,370.4329,1040.9581,374.444,1049.9532" style="stroke: #A80036; stroke-width: 1.0;"/><text fill="#000000" font-family="sans-serif" font-size="11" lengthAdjust="spacingAndGlyphs" textLength="7" x="383.3319" y="1027.6348">4</text><!--link E,E,~E,~E,~E to E,~E,~E,~E,~E--><path d="M391.1858,1049.8688 C399.8871,1039.9084 411.1371,1027.1584 421.3319,1016 C426.0846,1010.7981 431.2698,1005.2495 436.1577,1000.0742 " fill="none" id="E,E,~E,~E,~E-E,~E,~E,~E,~E" style="stroke: #A80036; stroke-width: 1.0;"/><polygon fill="#A80036" points="439.8255,996.2013,430.7327,999.9857,436.3875,999.8317,436.5414,1005.4865,439.8255,996.2013" style="stroke: #A80036; stroke-width: 1.0;"/><text fill="#000000" font-family="sans-serif" font-size="11" lengthAdjust="spacingAndGlyphs" textLength="7" x="422.3319" y="1027.6348">1</text><!--link E,E,~E,~E,~E to ~E,E,~E,~E,~E--><path d="M372.4927,1084.1515 C368.4264,1099.455 360.8332,1121.8724 348.3319,1138 C343.5402,1144.1816 337.4468,1149.7965 331.1525,1154.679 " fill="none" id="E,E,~E,~E,~E-~E,E,~E,~E,~E" style="stroke: #A80036; stroke-width: 1.0;"/><polygon fill="#A80036" points="326.7764,1157.9401,336.3831,1155.7695,330.7856,1154.9523,331.6027,1149.3548,326.7764,1157.9401" style="stroke: #A80036; stroke-width: 1.0;"/><text fill="#000000" font-family="sans-serif" font-size="11" lengthAdjust="spacingAndGlyphs" textLength="7" x="367.3319" y="1125.6348">5</text><!--link ~E,E,~E,~E,~E to E,E,~E,~E,~E--><path d="M305.2246,1157.7632 C312.4846,1142.808 324.1064,1120.9573 337.3319,1104 C341.809,1098.2596 347.1784,1092.5824 352.4807,1087.4628 " fill="none" id="~E,E,~E,~E,~E-E,E,~E,~E,~E" style="stroke: #A80036; stroke-width: 1.0;"/><polygon fill="#A80036" points="356.129,1084.0136,346.8411,1087.29,352.4957,1087.4486,352.3371,1093.1032,356.129,1084.0136" style="stroke: #A80036; stroke-width: 1.0;"/><text fill="#000000" font-family="sans-serif" font-size="11" lengthAdjust="spacingAndGlyphs" textLength="7" x="338.3319" y="1125.6348">2</text><!--link ~E,E,~E,~E,~E to ~E,~E,~E,~E,~E--><path d="M297.6654,1157.6981 C298.7045,1132.8816 302.7718,1086.1862 318.3319,1050 C349.5479,977.4045 400.2585,982.9391 425.3319,908 C454.9461,819.4895 443.5747,789.5331 425.3319,698 C415.0733,646.5276 387.833,590.8553 371.7356,560.9648 " fill="none" id="~E,E,~E,~E,~E-~E,~E,~E,~E,~E" style="stroke: #A80036; stroke-width: 1.0;"/><polygon fill="#A80036" points="369.2521,556.3936,370.034,566.2114,371.6391,560.787,377.0634,562.3922,369.2521,556.3936" style="stroke: #A80036; stroke-width: 1.0;"/><text fill="#000000" font-family="sans-serif" font-size="11" lengthAdjust="spacingAndGlyphs" textLength="14" x="443.3319" y="851.6348">41</text><!--link ~E,~E,~E,~E,~E to ~E,E,~E,~E,~E--><path d="M303.5949,545.7833 C224.8032,556.9534 90.3319,582.5311 90.3319,627 C90.3319,627 90.3319,627 90.3319,935 C90.3319,1038.4995 202.0867,1119.4743 261.3695,1155.148 " fill="none" id="~E,~E,~E,~E,~E-~E,E,~E,~E,~E" style="stroke: #A80036; stroke-width: 1.0;"/><polygon fill="#A80036" points="265.893,1157.8435,260.2092,1149.8002,261.5978,1155.284,256.114,1156.6725,265.893,1157.8435" style="stroke: #A80036; stroke-width: 1.0;"/><text fill="#000000" font-family="sans-serif" font-size="11" lengthAdjust="spacingAndGlyphs" textLength="14" x="91.3319" y="851.6348">41</text><!--link ~E,~E,~E,~E,~E to ~E,~E,~E,E,~E--><path d="M303.6599,554.3871 C292.3743,559.6867 281.4832,566.7184 273.3319,576 C246.5022,606.5501 253.9411,623.73 248.3319,664 C242.393,706.6372 262.708,754.373 276.8355,781.3453 " fill="none" id="~E,~E,~E,~E,~E-~E,~E,~E,E,~E" style="stroke: #A80036; stroke-width: 1.0;"/><polygon fill="#A80036" points="279.219,785.813,278.5117,775.9896,276.8654,781.4016,271.4534,779.7553,279.219,785.813" style="stroke: #A80036; stroke-width: 1.0;"/><text fill="#000000" font-family="sans-serif" font-size="11" lengthAdjust="spacingAndGlyphs" textLength="14" x="249.3319" y="675.6348">44</text><!--link ~E,~E,~E,E,~E to ~E,~E,~E,~E,~E--><path d="M292.2212,785.7844 C295.8558,764.8858 302.5692,728.6351 310.3319,698 C322.874,648.5029 341.4591,591.5491 351.7612,561.0378 " fill="none" id="~E,~E,~E,E,~E-~E,~E,~E,~E,~E" style="stroke: #A80036; stroke-width: 1.0;"/><polygon fill="#A80036" points="353.4633,556.0145,346.7867,563.2548,351.8587,560.75,354.3635,565.8221,353.4633,556.0145" style="stroke: #A80036; stroke-width: 1.0;"/><text fill="#000000" font-family="sans-serif" font-size="11" lengthAdjust="spacingAndGlyphs" textLength="14" x="321.3319" y="675.6348">40</text><!--link E,~E,~E,~E,~E to E,~E,~E,~E,~E--><path d="M508.0709,970.9721 C519.5046,971.7264 527.8319,974.4023 527.8319,979 C527.8319,982.8793 521.9036,985.3905 513.183,986.5336 " fill="none" id="E,~E,~E,~E,~E-E,~E,~E,~E,~E" style="stroke: #A80036; stroke-width: 1.0;"/><polygon fill="#A80036" points="508.0709,987.0279,517.4141,990.143,513.0477,986.5466,516.6441,982.1802,508.0709,987.0279" style="stroke: #A80036; stroke-width: 1.0;"/><text fill="#000000" font-family="sans-serif" font-size="11" lengthAdjust="spacingAndGlyphs" textLength="7" x="533.8319" y="983.6348">3</text><!--link ~E,~E,~E,~E,E to ~E,~E,E,~E,E--><path d="M677.0283,636.5489 C709.7335,643.4312 748.2299,653.351 761.3319,664 C781.0753,680.047 787.3319,689.5577 787.3319,715 C787.3319,715 787.3319,715 787.3319,1351 C787.3319,1376.4423 782.3807,1387.7081 761.3319,1402 C733.6983,1420.7629 520.6907,1432.3706 419.8889,1436.8667 " fill="none" id="~E,~E,~E,~E,E-~E,~E,E,~E,E" style="stroke: #A80036; stroke-width: 1.0;"/><polygon fill="#A80036" points="414.8811,1437.0883,424.0492,1440.6863,419.8762,1436.8672,423.6954,1432.6942,414.8811,1437.0883" style="stroke: #A80036; stroke-width: 1.0;"/><text fill="#000000" font-family="sans-serif" font-size="11" lengthAdjust="spacingAndGlyphs" textLength="7" x="788.3319" y="1027.6348">2</text><!--link ~E,~E,E,~E,E to ~E,~E,~E,~E,E--><path d="M415.2058,1437.8259 C516.9204,1434.0303 745.3319,1418.043 745.3319,1351 C745.3319,715 745.3319,715 745.3319,715 C745.3319,680.6679 712.9956,658.2664 681.8948,644.6605 " fill="none" id="~E,~E,E,~E,E-~E,~E,~E,~E,E" style="stroke: #A80036; stroke-width: 1.0;"/><polygon fill="#A80036" points="676.9191,642.5519,683.6449,649.7466,681.5228,644.5029,686.7665,642.3807,676.9191,642.5519" style="stroke: #A80036; stroke-width: 1.0;"/><text fill="#000000" font-family="sans-serif" font-size="11" lengthAdjust="spacingAndGlyphs" textLength="7" x="746.3319" y="1027.6348">3</text><!--link ~E,~E,E,~E,E to ~E,~E,E,~E,~E--><path d="M353.7691,1421.9496 C342.5539,1407.8505 326.5624,1387.747 314.4637,1372.5371 " fill="none" id="~E,~E,E,~E,E-~E,~E,E,~E,~E" style="stroke: #A80036; stroke-width: 1.0;"/><polygon fill="#A80036" points="311.1616,1368.386,313.6338,1377.9195,314.2742,1372.299,319.8947,1372.9394,311.1616,1368.386" style="stroke: #A80036; stroke-width: 1.0;"/><text fill="#000000" font-family="sans-serif" font-size="11" lengthAdjust="spacingAndGlyphs" textLength="7" x="338.3319" y="1399.6348">3</text><!--link ~E,~E,E,~E,~E to ~E,~E,E,~E,E--><path d="M300.6597,1368.3384 C303.3198,1378.8521 307.8724,1392.1021 315.3319,1402 C320.1364,1408.375 326.3552,1414.0923 332.8118,1419.0171 " fill="none" id="~E,~E,E,~E,~E-~E,~E,E,~E,E" style="stroke: #A80036; stroke-width: 1.0;"/><polygon fill="#A80036" points="336.8521,1421.98,331.9598,1413.4321,332.8201,1419.0232,327.229,1419.8834,336.8521,1421.98" style="stroke: #A80036; stroke-width: 1.0;"/><text fill="#000000" font-family="sans-serif" font-size="11" lengthAdjust="spacingAndGlyphs" textLength="7" x="316.3319" y="1399.6348">4</text><!--link ~E,~E,~E,E,~E to ~E,E,~E,E,~E--><path d="M268.0715,820.2064 C262.5683,825.8759 257.3472,832.6354 254.3319,840 C250.6853,848.9062 249.9545,859.4413 250.321,868.6174 " fill="none" id="~E,~E,~E,E,~E-~E,E,~E,E,~E" style="stroke: #A80036; stroke-width: 1.0;"/><polygon fill="#A80036" points="250.6499,873.8405,254.0763,864.6069,250.3356,868.8504,246.0921,865.1097,250.6499,873.8405" style="stroke: #A80036; stroke-width: 1.0;"/><text fill="#000000" font-family="sans-serif" font-size="11" lengthAdjust="spacingAndGlyphs" textLength="7" x="255.3319" y="851.6348">4</text><!--link ~E,E,~E,E,~E to ~E,~E,~E,E,~E--><path d="M260.3071,873.9496 C265.9763,860.0915 274.0186,840.4325 280.2004,825.3213 " fill="none" id="~E,E,~E,E,~E-~E,~E,~E,E,~E" style="stroke: #A80036; stroke-width: 1.0;"/><polygon fill="#A80036" points="282.2194,820.386,275.1095,827.2014,280.3262,825.0137,282.5139,830.2305,282.2194,820.386" style="stroke: #A80036; stroke-width: 1.0;"/><text fill="#000000" font-family="sans-serif" font-size="11" lengthAdjust="spacingAndGlyphs" textLength="7" x="275.3319" y="851.6348">1</text><!--link ~E,E,~E,E,~E to ~E,E,~E,~E,~E--><path d="M253.5465,908.0901 C254.4255,948.6764 258.8773,1053.7652 281.3319,1138 C282.6568,1142.9703 284.5399,1148.1366 286.5513,1152.9765 " fill="none" id="~E,E,~E,E,~E-~E,E,~E,~E,~E" style="stroke: #A80036; stroke-width: 1.0;"/><polygon fill="#A80036" points="288.5897,1157.6884,288.6874,1147.84,286.6044,1153.0994,281.345,1151.0165,288.5897,1157.6884" style="stroke: #A80036; stroke-width: 1.0;"/><text fill="#000000" font-family="sans-serif" font-size="11" lengthAdjust="spacingAndGlyphs" textLength="7" x="263.3319" y="1027.6348">3</text><!--link ~E,~E,~E,~E,E to ~E,~E,~E,~E,E--><path d="M677.0709,618.9721 C688.5046,619.7264 696.8319,622.4023 696.8319,627 C696.8319,630.8793 690.9036,633.3905 682.183,634.5336 " fill="none" id="~E,~E,~E,~E,E-~E,~E,~E,~E,E" style="stroke: #A80036; stroke-width: 1.0;"/><polygon fill="#A80036" points="677.0709,635.0279,686.4141,638.143,682.0477,634.5466,685.6441,630.1802,677.0709,635.0279" style="stroke: #A80036; stroke-width: 1.0;"/><text fill="#000000" font-family="sans-serif" font-size="11" lengthAdjust="spacingAndGlyphs" textLength="7" x="702.8319" y="631.6348">7</text><!--link ~E,~E,~E,E,~E to ~E,~E,E,E,~E--><path d="M237.4825,811.5203 C205.5355,817.8845 168.7506,827.6098 158.3319,840 C77.5276,936.0938 129.3319,995.4478 129.3319,1121 C129.3319,1121 129.3319,1121 129.3319,1351 C129.3319,1376.4423 137.7602,1383.6004 155.3319,1402 C161.6123,1408.5763 169.3208,1414.3235 177.2061,1419.2031 " fill="none" id="~E,~E,~E,E,~E-~E,~E,E,E,~E" style="stroke: #A80036; stroke-width: 1.0;"/><polygon fill="#A80036" points="181.5971,1421.8244,175.9198,1413.7765,177.304,1419.2614,171.8191,1420.6455,181.5971,1421.8244" style="stroke: #A80036; stroke-width: 1.0;"/><text fill="#000000" font-family="sans-serif" font-size="11" lengthAdjust="spacingAndGlyphs" textLength="7" x="130.3319" y="1125.6348">4</text><!--link ~E,~E,E,E,~E to ~E,~E,~E,E,~E--><path d="M203.7427,1421.6945 C189.5274,1404.9894 171.3319,1378.279 171.3319,1351 C171.3319,1121 171.3319,1121 171.3319,1121 C171.3319,1010.7052 141.4518,970.2387 195.3319,874 C207.5924,852.1007 229.6991,834.8816 249.3946,822.888 " fill="none" id="~E,~E,E,E,~E-~E,~E,~E,E,~E" style="stroke: #A80036; stroke-width: 1.0;"/><polygon fill="#A80036" points="253.8166,820.2567,244.0369,821.4215,249.5198,822.8135,248.1278,828.2964,253.8166,820.2567" style="stroke: #A80036; stroke-width: 1.0;"/><text fill="#000000" font-family="sans-serif" font-size="11" lengthAdjust="spacingAndGlyphs" textLength="7" x="172.3319" y="1125.6348">1</text><!--link ~E,~E,~E,E,~E to E,~E,~E,E,~E--><path d="M317.6406,820.1814 C325.5844,825.8503 333.8208,832.6156 340.3319,840 C347.9098,848.5944 354.2698,859.5861 359.0032,869.163 " fill="none" id="~E,~E,~E,E,~E-E,~E,~E,E,~E" style="stroke: #A80036; stroke-width: 1.0;"/><polygon fill="#A80036" points="361.1945,873.734,360.9109,863.8892,359.0331,869.2253,353.697,867.3475,361.1945,873.734" style="stroke: #A80036; stroke-width: 1.0;"/><text fill="#000000" font-family="sans-serif" font-size="11" lengthAdjust="spacingAndGlyphs" textLength="7" x="351.3319" y="851.6348">3</text><!--link E,~E,~E,E,~E to ~E,~E,~E,E,~E--><path d="M347.5657,873.6834 C340.8428,867.7113 333.5281,860.8065 327.3319,854 C318.9523,844.7951 310.5838,833.8071 303.8416,824.3916 " fill="none" id="E,~E,~E,E,~E-~E,~E,~E,E,~E" style="stroke: #A80036; stroke-width: 1.0;"/><polygon fill="#A80036" points="300.8641,820.1882,302.8024,829.8444,303.7543,824.2682,309.3305,825.2201,300.8641,820.1882" style="stroke: #A80036; stroke-width: 1.0;"/><text fill="#000000" font-family="sans-serif" font-size="11" lengthAdjust="spacingAndGlyphs" textLength="7" x="328.3319" y="851.6348">4</text><!--link E,~E,~E,E,~E to E,~E,~E,~E,~E--><path d="M383.6158,908.3693 C392.6272,918.4091 404.3772,931.1591 415.3319,942 C420.7584,947.3701 426.7756,952.9791 432.4912,958.1589 " fill="none" id="E,~E,~E,E,~E-E,~E,~E,~E,~E" style="stroke: #A80036; stroke-width: 1.0;"/><polygon fill="#A80036" points="436.389,961.6681,432.3766,952.6736,432.673,958.3227,427.024,958.6192,436.389,961.6681" style="stroke: #A80036; stroke-width: 1.0;"/><text fill="#000000" font-family="sans-serif" font-size="11" lengthAdjust="spacingAndGlyphs" textLength="7" x="416.3319" y="939.6348">3</text><!--link E,~E,~E,~E,~E to E,~E,~E,E,~E--><path d="M448.2639,961.6021 C442.8032,951.066 434.859,937.8133 425.3319,928 C419.2749,921.7611 411.981,916.0478 404.6644,911.0745 " fill="none" id="E,~E,~E,~E,~E-E,~E,~E,E,~E" style="stroke: #A80036; stroke-width: 1.0;"/><polygon fill="#A80036" points="400.1167,908.0754,405.4278,916.3695,404.2907,910.8281,409.8321,909.6911,400.1167,908.0754" style="stroke: #A80036; stroke-width: 1.0;"/><text fill="#000000" font-family="sans-serif" font-size="11" lengthAdjust="spacingAndGlyphs" textLength="7" x="438.3319" y="939.6348">4</text><!--link ~E,E,~E,~E,~E to ~E,E,~E,~E,E--><path d="M348.8561,1184.4536 C384.1087,1191.2579 431.7999,1201.1248 473.3319,1212 C510.1547,1221.6421 551.0352,1234.5285 582.5172,1244.9354 " fill="none" id="~E,E,~E,~E,~E-~E,E,~E,~E,E" style="stroke: #A80036; stroke-width: 1.0;"/><polygon fill="#A80036" points="587.4872,1246.5834,580.2036,1239.954,582.7413,1245.0097,577.6856,1247.5474,587.4872,1246.5834" style="stroke: #A80036; stroke-width: 1.0;"/><text fill="#000000" font-family="sans-serif" font-size="11" lengthAdjust="spacingAndGlyphs" textLength="7" x="524.3319" y="1223.6348">5</text><!--link ~E,E,~E,~E,E to ~E,E,~E,~E,~E--><path d="M608.5095,1245.9771 C589.3831,1234.6179 562.6686,1220.2952 537.3319,1212 C476.5166,1192.089 403.4458,1182.7818 354.0322,1178.5037 " fill="none" id="~E,E,~E,~E,E-~E,E,~E,~E,~E" style="stroke: #A80036; stroke-width: 1.0;"/><polygon fill="#A80036" points="349.0263,1178.0805,357.6573,1182.8246,354.0085,1178.5018,358.3313,1174.853,349.0263,1178.0805" style="stroke: #A80036; stroke-width: 1.0;"/><text fill="#000000" font-family="sans-serif" font-size="11" lengthAdjust="spacingAndGlyphs" textLength="7" x="572.3319" y="1223.6348">1</text><!--link ~E,E,~E,~E,E to ~E,~E,~E,~E,E--><path d="M659.8814,1245.7604 C679.3592,1229.8683 703.3319,1204.3475 703.3319,1175 C703.3319,715 703.3319,715 703.3319,715 C703.3319,686.2909 679.7955,662.5687 658.5806,647.0175 " fill="none" id="~E,E,~E,~E,E-~E,~E,~E,~E,E" style="stroke: #A80036; stroke-width: 1.0;"/><polygon fill="#A80036" points="654.3762,644.0172,659.3785,652.5012,658.4461,646.9217,664.0256,645.9893,654.3762,644.0172" style="stroke: #A80036; stroke-width: 1.0;"/><text fill="#000000" font-family="sans-serif" font-size="11" lengthAdjust="spacingAndGlyphs" textLength="7" x="704.3319" y="939.6348">5</text><!--link ~E,~E,~E,~E,E to ~E,E,~E,~E,E--><path d="M608.7427,644.3055 C594.5274,661.0106 576.3319,687.721 576.3319,715 C576.3319,715 576.3319,715 576.3319,847 C576.3319,933.867 661.3319,936.133 661.3319,1023 C661.3319,1023 661.3319,1023 661.3319,1175 C661.3319,1198.2986 652.8462,1223.6974 645.5704,1241.1927 " fill="none" id="~E,~E,~E,~E,E-~E,E,~E,~E,E" style="stroke: #A80036; stroke-width: 1.0;"/><polygon fill="#A80036" points="643.5584,1245.9094,650.769,1239.2006,645.5203,1241.3104,643.4105,1236.0617,643.5584,1245.9094" style="stroke: #A80036; stroke-width: 1.0;"/><text fill="#000000" font-family="sans-serif" font-size="11" lengthAdjust="spacingAndGlyphs" textLength="7" x="626.3319" y="939.6348">1</text><!--link ~E,~E,E,E,~E to ~E,~E,E,~E,~E--><path d="M235.251,1421.9496 C247.5877,1407.8505 265.1783,1387.747 278.4869,1372.5371 " fill="none" id="~E,~E,E,E,~E-~E,~E,E,~E,~E" style="stroke: #A80036; stroke-width: 1.0;"/><polygon fill="#A80036" points="282.1192,1368.386,273.1823,1372.5251,278.8266,1372.1488,279.2029,1377.7932,282.1192,1368.386" style="stroke: #A80036; stroke-width: 1.0;"/><text fill="#000000" font-family="sans-serif" font-size="11" lengthAdjust="spacingAndGlyphs" textLength="7" x="265.3319" y="1399.6348">4</text><!--link ~E,~E,E,~E,~E to ~E,~E,E,E,~E--><path d="M263.4969,1368.0711 C255.0854,1373.5408 246.6717,1380.23 240.3319,1388 C233.5734,1396.2832 228.894,1407.1249 225.7711,1416.6814 " fill="none" id="~E,~E,E,~E,~E-~E,~E,E,E,~E" style="stroke: #A80036; stroke-width: 1.0;"/><polygon fill="#A80036" points="224.277,1421.5414,230.7451,1414.1142,225.7463,1416.7621,223.0983,1411.7633,224.277,1421.5414" style="stroke: #A80036; stroke-width: 1.0;"/><text fill="#000000" font-family="sans-serif" font-size="11" lengthAdjust="spacingAndGlyphs" textLength="7" x="241.3319" y="1399.6348">1</text><!--link E,~E,~E,~E,~E to E,~E,~E,~E,E--><path d="M499.1365,996.0498 C510.7443,1001.5928 522.9597,1008.3246 533.3319,1016 C544.7816,1024.4727 555.6857,1036.0052 564.1034,1045.9605 " fill="none" id="E,~E,~E,~E,~E-E,~E,~E,~E,E" style="stroke: #A80036; stroke-width: 1.0;"/><polygon fill="#A80036" points="567.3197,1049.8307,564.6439,1040.3523,564.1241,1045.9852,558.4911,1045.4653,567.3197,1049.8307" style="stroke: #A80036; stroke-width: 1.0;"/><text fill="#000000" font-family="sans-serif" font-size="11" lengthAdjust="spacingAndGlyphs" textLength="7" x="550.3319" y="1027.6348">2</text><!--link E,~E,~E,~E,E to E,~E,~E,~E,~E--><path d="M553.6206,1049.8166 C544.2746,1043.682 533.763,1036.6435 524.3319,1030 C510.3496,1020.1506 495.0902,1008.7663 482.5759,999.2556 " fill="none" id="E,~E,~E,~E,E-E,~E,~E,~E,~E" style="stroke: #A80036; stroke-width: 1.0;"/><polygon fill="#A80036" points="478.4429,996.107,483.1778,1004.743,482.4201,999.1371,488.026,998.3794,478.4429,996.107" style="stroke: #A80036; stroke-width: 1.0;"/><text fill="#000000" font-family="sans-serif" font-size="11" lengthAdjust="spacingAndGlyphs" textLength="7" x="525.3319" y="1027.6348">2</text><!--link ~E,E,~E,~E,~E to ~E,E,~E,~E,~E--><path d="M349.0709,1166.9721 C360.5046,1167.7264 368.8319,1170.4023 368.8319,1175 C368.8319,1178.8793 362.9036,1181.3905 354.183,1182.5336 " fill="none" id="~E,E,~E,~E,~E-~E,E,~E,~E,~E" style="stroke: #A80036; stroke-width: 1.0;"/><polygon fill="#A80036" points="349.0709,1183.0279,358.4141,1186.143,354.0477,1182.5466,357.6441,1178.1802,349.0709,1183.0279" style="stroke: #A80036; stroke-width: 1.0;"/><text fill="#000000" font-family="sans-serif" font-size="11" lengthAdjust="spacingAndGlyphs" textLength="7" x="374.8319" y="1179.6348">3</text><!--link ~E,~E,~E,~E,E to E,~E,~E,~E,E--><path d="M636.5988,644.0683 C646.8304,661.2423 660.3319,688.8575 660.3319,715 C660.3319,715 660.3319,715 660.3319,847 C660.3319,857.7343 602.4102,1020.0706 598.3319,1030 C596.2964,1034.9558 593.9086,1040.1836 591.5497,1045.0986 " fill="none" id="~E,~E,~E,~E,E-E,~E,~E,~E,E" style="stroke: #A80036; stroke-width: 1.0;"/><polygon fill="#A80036" points="589.2145,1049.8877,596.7544,1043.5513,591.4059,1045.3935,589.5638,1040.045,589.2145,1049.8877" style="stroke: #A80036; stroke-width: 1.0;"/><text fill="#000000" font-family="sans-serif" font-size="11" lengthAdjust="spacingAndGlyphs" textLength="7" x="661.3319" y="851.6348">1</text><!--link E,~E,~E,~E,E to ~E,~E,~E,~E,E--><path d="M585.378,1049.778 C595.7147,1012.9276 618.3319,923.551 618.3319,847 C618.3319,715 618.3319,715 618.3319,715 C618.3319,692.6384 620.6058,667.1808 622.5615,649.4202 " fill="none" id="E,~E,~E,~E,E-~E,~E,~E,~E,E" style="stroke: #A80036; stroke-width: 1.0;"/><polygon fill="#A80036" points="623.1554,644.1674,618.1694,652.6609,622.5935,649.1357,626.1187,653.5599,623.1554,644.1674" style="stroke: #A80036; stroke-width: 1.0;"/><text fill="#000000" font-family="sans-serif" font-size="11" lengthAdjust="spacingAndGlyphs" textLength="7" x="619.3319" y="851.6348">1</text><!--link ~E,~E,~E,E,~E to ~E,~E,~E,E,E--><path d="M302.9302,785.6526 C310.9629,775.6201 321.4629,762.8701 331.3319,752 C336.1006,746.7475 341.403,741.2565 346.4698,736.1612 " fill="none" id="~E,~E,~E,E,~E-~E,~E,~E,E,E" style="stroke: #A80036; stroke-width: 1.0;"/><polygon fill="#A80036" points="350.2857,732.3525,341.09,735.8795,346.7469,735.8847,346.7416,741.5416,350.2857,732.3525" style="stroke: #A80036; stroke-width: 1.0;"/><text fill="#000000" font-family="sans-serif" font-size="11" lengthAdjust="spacingAndGlyphs" textLength="7" x="332.3319" y="763.6348">1</text><!--link ~E,~E,~E,E,E to ~E,~E,~E,E,~E--><path d="M361.5995,732.305 C356.9542,742.8061 350.0482,756.0547 341.3319,766 C335.889,772.2104 329.2078,777.9408 322.4706,782.9443 " fill="none" id="~E,~E,~E,E,E-~E,~E,~E,E,~E" style="stroke: #A80036; stroke-width: 1.0;"/><polygon fill="#A80036" points="318.2791,785.9635,327.9197,783.9487,322.3361,783.0411,323.2438,777.4575,318.2791,785.9635" style="stroke: #A80036; stroke-width: 1.0;"/><text fill="#000000" font-family="sans-serif" font-size="11" lengthAdjust="spacingAndGlyphs" textLength="7" x="352.3319" y="763.6348">2</text><!--link ~E,~E,E,~E,~E to ~E,~E,E,~E,~E--><path d="M349.0709,1342.9721 C360.5046,1343.7264 368.8319,1346.4023 368.8319,1351 C368.8319,1354.8793 362.9036,1357.3905 354.183,1358.5336 " fill="none" id="~E,~E,E,~E,~E-~E,~E,E,~E,~E" style="stroke: #A80036; stroke-width: 1.0;"/><polygon fill="#A80036" points="349.0709,1359.0279,358.4141,1362.143,354.0477,1358.5466,357.6441,1354.1802,349.0709,1359.0279" style="stroke: #A80036; stroke-width: 1.0;"/><text fill="#000000" font-family="sans-serif" font-size="11" lengthAdjust="spacingAndGlyphs" textLength="7" x="374.8319" y="1355.6348">4</text><!--link ~E,~E,~E,~E,E to ~E,~E,~E,E,E--><path d="M575.475,644.0716 C530.9699,659.3107 466.0149,681.5521 420.7472,697.0523 " fill="none" id="~E,~E,~E,~E,E-~E,~E,~E,E,E" style="stroke: #A80036; stroke-width: 1.0;"/><polygon fill="#A80036" points="415.8793,698.7192,425.6898,699.5878,420.6096,697.0994,423.0981,692.0192,415.8793,698.7192" style="stroke: #A80036; stroke-width: 1.0;"/><text fill="#000000" font-family="sans-serif" font-size="11" lengthAdjust="spacingAndGlyphs" textLength="7" x="513.3319" y="675.6348">1</text><!--link ~E,E,~E,~E,~E to ~E,E,E,~E,~E--><path d="M297.3319,1192.386 C297.3319,1206.2154 297.3319,1225.6635 297.3319,1240.6491 " fill="none" id="~E,E,~E,~E,~E-~E,E,E,~E,~E" style="stroke: #A80036; stroke-width: 1.0;"/><polygon fill="#A80036" points="297.3319,1245.9496,301.3319,1236.9496,297.3319,1240.9496,293.3319,1236.9496,297.3319,1245.9496" style="stroke: #A80036; stroke-width: 1.0;"/><text fill="#000000" font-family="sans-serif" font-size="11" lengthAdjust="spacingAndGlyphs" textLength="7" x="298.3319" y="1223.6348">2</text><!--link ~E,E,E,~E,~E to ~E,~E,E,~E,~E--><path d="M297.3319,1280.386 C297.3319,1294.2154 297.3319,1313.6635 297.3319,1328.6491 " fill="none" id="~E,E,E,~E,~E-~E,~E,E,~E,~E" style="stroke: #A80036; stroke-width: 1.0;"/><polygon fill="#A80036" points="297.3319,1333.9496,301.3319,1324.9496,297.3319,1328.9496,293.3319,1324.9496,297.3319,1333.9496" style="stroke: #A80036; stroke-width: 1.0;"/><text fill="#000000" font-family="sans-serif" font-size="11" lengthAdjust="spacingAndGlyphs" textLength="7" x="298.3319" y="1311.6348">2</text><!--link ~E,~E,~E,E,~E to ~E,~E,~E,E,~E--><path d="M341.0709,794.9721 C352.5046,795.7264 360.8319,798.4023 360.8319,803 C360.8319,806.8793 354.9036,809.3905 346.183,810.5336 " fill="none" id="~E,~E,~E,E,~E-~E,~E,~E,E,~E" style="stroke: #A80036; stroke-width: 1.0;"/><polygon fill="#A80036" points="341.0709,811.0279,350.4141,814.143,346.0477,810.5466,349.6441,806.1802,341.0709,811.0279" style="stroke: #A80036; stroke-width: 1.0;"/><text fill="#000000" font-family="sans-serif" font-size="11" lengthAdjust="spacingAndGlyphs" textLength="7" x="366.8319" y="807.6348">2</text><!--link E,~E,~E,~E,~E to E,~E,E,~E,~E--><path d="M462.1794,996.162 C468.5005,1017.0078 476.9629,1053.2064 471.3319,1084 C470.4238,1088.9657 468.8832,1094.13 467.148,1098.9695 " fill="none" id="E,~E,~E,~E,~E-E,~E,E,~E,~E" style="stroke: #A80036; stroke-width: 1.0;"/><polygon fill="#A80036" points="465.3642,1103.6813,472.2916,1096.6805,467.1345,1099.0052,464.8098,1093.8481,465.3642,1103.6813" style="stroke: #A80036; stroke-width: 1.0;"/><text fill="#000000" font-family="sans-serif" font-size="11" lengthAdjust="spacingAndGlyphs" textLength="7" x="471.3319" y="1027.6348">3</text><!--link E,~E,E,~E,~E to E,~E,~E,~E,~E--><path d="M457.0879,1103.8931 C456.8401,1085.6035 456.4734,1055.7529 456.3319,1030 C456.2798,1020.5262 456.2713,1010.0623 456.279,1001.091 " fill="none" id="E,~E,E,~E,~E-E,~E,~E,~E,~E" style="stroke: #A80036; stroke-width: 1.0;"/><polygon fill="#A80036" points="456.2852,996.0001,452.2741,1004.9952,456.2791,1001.0001,460.2741,1005.005,456.2852,996.0001" style="stroke: #A80036; stroke-width: 1.0;"/><text fill="#000000" font-family="sans-serif" font-size="11" lengthAdjust="spacingAndGlyphs" textLength="7" x="457.3319" y="1027.6348">2</text><!--link E,~E,E,~E,~E to ~E,~E,E,~E,~E--><path d="M457.5552,1138.123 C457.7481,1180.3477 455.9523,1287.918 433.3319,1314 C422.6792,1326.2828 386.4385,1335.7838 354.0459,1342.0813 " fill="none" id="E,~E,E,~E,~E-~E,~E,E,~E,~E" style="stroke: #A80036; stroke-width: 1.0;"/><polygon fill="#A80036" points="348.8847,1343.0645,358.4743,1345.3096,353.7964,1342.1288,356.9771,1337.4509,348.8847,1343.0645" style="stroke: #A80036; stroke-width: 1.0;"/><text fill="#000000" font-family="sans-serif" font-size="11" lengthAdjust="spacingAndGlyphs" textLength="7" x="457.3319" y="1223.6348">3</text><!--link ~E,~E,E,~E,~E to E,~E,E,~E,~E--><path d="M311.8915,1333.8778 C323.7212,1319.7306 340.6316,1298.9634 354.3319,1280 C388.8451,1232.2282 425.5062,1173.4331 444.3992,1142.4512 " fill="none" id="~E,~E,E,~E,~E-E,~E,E,~E,~E" style="stroke: #A80036; stroke-width: 1.0;"/><polygon fill="#A80036" points="447.0553,1138.0865,438.9594,1143.6952,444.4559,1142.3577,445.7934,1147.8542,447.0553,1138.0865" style="stroke: #A80036; stroke-width: 1.0;"/><text fill="#000000" font-family="sans-serif" font-size="11" lengthAdjust="spacingAndGlyphs" textLength="7" x="401.3319" y="1223.6348">2</text><!--
@startuml
(*) - -> [1] "null,null,null,null,null"
"null,null,null,null,null" - -> [1] "~E,null,null,null,null"
"~E,null,null,null,null" - -> [1] "~E,~E,null,null,null"
"~E,~E,null,null,null" - -> [1] "~E,~E,~E,null,null"
"~E,~E,~E,null,null" - -> [1] "~E,~E,~E,~E,null"
"~E,~E,~E,~E,null" - -> [1] "~E,~E,~E,~E,~E"
"~E,~E,~E,~E,~E" - -> [231] "~E,~E,~E,~E,~E"
"~E,~E,~E,~E,~E" - -> [38] "~E,~E,~E,~E,E"
"~E,~E,~E,~E,~E" - -> [39] "~E,~E,E,~E,~E"
"~E,~E,E,~E,~E" - -> [44] "~E,~E,~E,~E,~E"
"~E,~E,~E,~E,~E" - -> [42] "E,~E,~E,~E,~E"
"E,~E,~E,~E,~E" - -> [4] "E,E,~E,~E,~E"
"E,E,~E,~E,~E" - -> [5] "~E,E,~E,~E,~E"
"~E,E,~E,~E,~E" - -> [41] "~E,~E,~E,~E,~E"
"~E,~E,~E,~E,~E" - -> [44] "~E,~E,~E,E,~E"
"~E,~E,~E,E,~E" - -> [40] "~E,~E,~E,~E,~E"
"E,~E,~E,~E,~E" - -> [3] "E,~E,~E,~E,~E"
"E,~E,~E,~E,~E" - -> [37] "~E,~E,~E,~E,~E"
"~E,~E,~E,~E,~E" - -> [41] "~E,E,~E,~E,~E"
"~E,~E,~E,~E,E" - -> [2] "~E,~E,E,~E,E"
"~E,~E,E,~E,E" - -> [3] "~E,~E,E,~E,~E"
"~E,~E,~E,E,~E" - -> [4] "~E,E,~E,E,~E"
"~E,E,~E,E,~E" - -> [3] "~E,E,~E,~E,~E"
"~E,~E,~E,~E,E" - -> [7] "~E,~E,~E,~E,E"
"~E,E,~E,E,~E" - -> [1] "~E,~E,~E,E,~E"
"~E,~E,~E,E,~E" - -> [4] "~E,~E,E,E,~E"
"~E,~E,E,E,~E" - -> [1] "~E,~E,~E,E,~E"
"~E,~E,~E,E,~E" - -> [3] "E,~E,~E,E,~E"
"E,~E,~E,E,~E" - -> [3] "E,~E,~E,~E,~E"
"~E,E,~E,~E,~E" - -> [5] "~E,E,~E,~E,E"
"~E,E,~E,~E,E" - -> [5] "~E,~E,~E,~E,E"
"~E,E,~E,~E,~E" - -> [2] "E,E,~E,~E,~E"
"~E,~E,E,E,~E" - -> [4] "~E,~E,E,~E,~E"
"E,~E,~E,~E,~E" - -> [2] "E,~E,~E,~E,E"
"E,~E,~E,~E,E" - -> [2] "E,~E,~E,~E,~E"
"~E,E,~E,~E,~E" - -> [3] "~E,E,~E,~E,~E"
"E,~E,~E,~E,~E" - -> [4] "E,~E,~E,E,~E"
"E,~E,~E,E,~E" - -> [4] "~E,~E,~E,E,~E"
"~E,~E,E,~E,~E" - -> [4] "~E,~E,E,~E,E"
"~E,~E,~E,~E,E" - -> [1] "E,~E,~E,~E,E"
"~E,~E,~E,E,~E" - -> [1] "~E,~E,~E,E,E"
"~E,~E,~E,E,E" - -> [2] "~E,~E,~E,E,~E"
"~E,~E,E,~E,~E" - -> [4] "~E,~E,E,~E,~E"
"~E,~E,~E,~E,E" - -> [1] "~E,~E,~E,E,E"
"~E,E,~E,~E,~E" - -> [2] "~E,E,E,~E,~E"
"~E,E,E,~E,~E" - -> [2] "~E,~E,E,~E,~E"
"~E,~E,~E,E,~E" - -> [2] "~E,~E,~E,E,~E"
"~E,~E,E,~E,E" - -> [3] "~E,~E,~E,~E,E"
"~E,~E,~E,~E,E" - -> [1] "~E,E,~E,~E,E"
"~E,E,~E,~E,E" - -> [1] "~E,E,~E,~E,~E"
"E,~E,~E,~E,~E" - -> [3] "E,~E,E,~E,~E"
"E,~E,E,~E,~E" - -> [3] "~E,~E,E,~E,~E"
"E,E,~E,~E,~E" - -> [1] "E,~E,~E,~E,~E"
"~E,~E,E,~E,~E" - -> [1] "~E,~E,E,E,~E"
"~E,~E,E,~E,~E" - -> [2] "E,~E,E,~E,~E"
"E,~E,E,~E,~E" - -> [2] "E,~E,~E,~E,~E"
"E,~E,~E,~E,E" - -> [1] "~E,~E,~E,~E,E"
"~E,~E,~E,~E,E" - -> [42] "~E,~E,~E,~E,~E" #red
@enduml

PlantUML version 1.2017.15(Mon Jul 03 12:45:34 EDT 2017)
(EPL source distribution)
Java Runtime: Java(TM) SE Runtime Environment
JVM: Java HotSpot(TM) 64-Bit Server VM
Java Version: 1.8.0_144-b01
Operating System: Mac OS X
OS Version: 10.13.3
Default Encoding: UTF-8
Language: zh
Country: CN
--></g></svg>